# xmcd
#
# Track frame offsets:
#	150
#	19501
#	37780
#	51293
#	69294
#	88131
#	93550
#	101357
#	114647
#	120005
#	134685
#
# Disc length: 1935 seconds
#
# Revision: 1
# Processed by: cddbd v1.5.1PL0 Copyright (c) Steve Scherf et al.
# Submitted via: audiograbber 1.83.01
#
DISCID=84078d0b
DTITLE=Arthur Migliazza - Arthur Migliazza
DYEAR=2005
DGENRE=Blues
TTITLE0=After Hours
TTITLE1=Swanee River Boogie
TTITLE2=Willow Weep for Me
TTITLE3=Rock Little Baby
TTITLE4=Georgia On My Mind
TTITLE5=Impressions of Victoria
TTITLE6=Waiting
TTITLE7=Tucson Groove
TTITLE8=Winds of Fall
TTITLE9=Walk Alone
TTITLE10=Dusk
EXTD=
EXTT0=
EXTT1=
EXTT2=
EXTT3=
EXTT4=
EXTT5=
EXTT6=
EXTT7=
EXTT8=
EXTT9=
EXTT10=
PLAYORDER=
